<svg aria-hidden="true" style="position: absolute; width: 0; height: 0; overflow: hidden;" version="1.1" xmlns="http://www.w3.org/2000/svg" xmlns:xlink="http://www.w3.org/1999/xlink">
<defs>

<symbol id="icon-burger" viewBox="0 0 32 32">
<path d="M29.333 22.333c0-0.552-0.448-1-1-1h-24.667c-0.552 0-1 0.448-1 1s0.448 1 1 1h24.667c0.552 0 1-0.448 1-1zM29.333 15.667c0-0.552-0.448-1-1-1h-24.667c-0.552 0-1 0.448-1 1s0.448 1 1 1h24.667c0.552 0 1-0.448 1-1zM29.333 9c0-0.552-0.448-1-1-1h-24.667c-0.552 0-1 0.448-1 1s0.448 1 1 1h24.667c0.552 0 1-0.448 1-1z"></path>
</symbol>

<symbol id="icon-close" viewBox="0 0 32 32">
<path stroke-linejoin="round" stroke-linecap="round" stroke-miterlimit="4" stroke-width="2" d="M8.458 8.457l15.085 15.085M8.458 23.543l15.085-15.085"></path>
</symbol>

<symbol id="icon-call" viewBox="0 0 32 32">
<path stroke-linejoin="round" stroke-linecap="round" stroke-miterlimit="4" stroke-width="2.6667" d="M20 9.333c0.707 0 1.385 0.281 1.886 0.781s0.781 1.178 0.781 1.886M20 4c2.122 0 4.157 0.843 5.657 2.343s2.343 3.535 2.343 5.657M6.667 5.333h5.333l2.667 6.667-3.333 2c1.428 2.895 3.771 5.239 6.667 6.667l2-3.333 6.667 2.667v5.333c0 0.707-0.281 1.385-0.781 1.886s-1.178 0.781-1.886 0.781c-5.201-0.316-10.106-2.525-13.791-6.209s-5.893-8.59-6.209-13.791c0-0.707 0.281-1.386 0.781-1.886s1.178-0.781 1.886-0.781z"></path>
</symbol>

<symbol id="icon-map_pin" viewBox="0 0 32 32">
<path stroke-linejoin="miter" stroke-linecap="butt" stroke-miterlimit="4" stroke-width="2.6667" d="M23.543 7.124l0 0c1.958 1.958 3.078 4.601 3.123 7.37 0.045 2.766-0.986 5.44-2.876 7.46l-0.255 0.264-5.649 5.648c-0 0-0 0-0 0-0.479 0.478-1.121 0.757-1.797 0.779-0.669 0.022-1.322-0.209-1.829-0.646l-0.158-0.148-5.643-5.642c-0 0-0 0-0 0-2-2-3.124-4.713-3.124-7.542s1.124-5.542 3.124-7.543 4.714-3.124 7.543-3.124c2.829 0 5.542 1.124 7.542 3.124zM16 9.333c-0.7 0-1.394 0.138-2.041 0.406s-1.235 0.661-1.73 1.156c-0.495 0.495-0.888 1.083-1.156 1.73s-0.406 1.341-0.406 2.041c0 0.7 0.138 1.394 0.406 2.041s0.661 1.235 1.156 1.73c0.495 0.495 1.083 0.888 1.73 1.156s1.341 0.406 2.041 0.406c1.414 0 2.771-0.562 3.771-1.562s1.562-2.357 1.562-3.771c0-1.415-0.562-2.771-1.562-3.771s-2.357-1.562-3.771-1.562z"></path>
</symbol>

<symbol id="icon-telegram" viewBox="0 0 32 32">
<path stroke-linejoin="round" stroke-linecap="round" stroke-miterlimit="4" stroke-width="2.6667" d="M20 13.333l-5.333 5.333 8 8 5.333-21.333-24 9.333 5.333 2.667 2.667 8 4-5.333"></path>
</symbol>

<symbol id="icon-facebook" viewBox="0 0 32 32">
<path stroke-linejoin="round" stroke-linecap="round" stroke-miterlimit="10" stroke-width="2" d="M25 12h-6v-4c0-1.105 0.895-2 2-2v0h2v-5h-4c-3.314 0-6 2.686-6 6v0 5h-4v5h4v14h6v-14h4l2-5z"></path>
</symbol>

<symbol id="icon-instagram" viewBox="0 0 32 32">
<path troke-linejoin="round" stroke-linecap="round" stroke-miterlimit="4" stroke-width="2.6667" d="M22 10v0.013M5.333 10.667c0-1.415 0.562-2.771 1.562-3.771s2.357-1.562 3.771-1.562h10.667c1.415 0 2.771 0.562 3.771 1.562s1.562 2.357 1.562 3.771v10.667c0 1.415-0.562 2.771-1.562 3.771s-2.357 1.562-3.771 1.562h-10.667c-1.415 0-2.771-0.562-3.771-1.562s-1.562-2.357-1.562-3.771v-10.667zM12 16c0 1.061 0.421 2.078 1.172 2.828s1.768 1.172 2.828 1.172c1.061 0 2.078-0.421 2.828-1.172s1.172-1.768 1.172-2.828c0-1.061-0.421-2.078-1.172-2.828s-1.768-1.172-2.828-1.172c-1.061 0-2.078 0.421-2.828 1.172s-1.172 1.768-1.172 2.828z"></path>
</symbol>

<symbol id="icon-tiktok" viewBox="0 0 32 32">
<path stroke-linejoin="miter" stroke-linecap="round" stroke-miterlimit="4" stroke-width="2.6667" d="M26.23 13.32c-0.575 0.125-2.37 0.325-4.85-1.205-0.038-0.025-0.085-0.040-0.135-0.040-0.138 0-0.25 0.112-0.25 0.25v0s0 5 0 6.665c0 1.34 0.075 10.2-8.58 9.21 0 0-6.84-0.5-6.84-8.165 0 0 0.095-6.9 8.21-7.5 0.006-0.001 0.013-0.001 0.020-0.001 0.139 0 0.253 0.112 0.255 0.251v3.515c0 0.002 0 0.004 0 0.007 0 0.122-0.091 0.223-0.209 0.238l-0.001 0c-0.95 0.135-4.77 0.9-4.345 4.385 0.228 1.786 1.738 3.152 3.568 3.152 0.041 0 0.082-0.001 0.123-0.002l-0.006 0s3.5 0.39 3.66-4.5v-15.61c0.003-0.137 0.113-0.247 0.25-0.25h3.44c0.122 0 0.223 0.088 0.245 0.203l0 0.002c0.18 1 1.21 4.91 5.4 5.155 0.132 0.005 0.237 0.113 0.24 0.245v3.755c0 0.001 0 0.003 0 0.004 0 0.117-0.083 0.214-0.194 0.236l-0.002 0z"></path>
</symbol>

<symbol id="icon-email" viewBox="0 0 32 32">
<path stroke-linejoin="round" stroke-linecap="round" stroke-miterlimit="4" stroke-width="2.6667" d="M4 9.333c0-0.707 0.281-1.386 0.781-1.886s1.178-0.781 1.886-0.781h18.667c0.707 0 1.385 0.281 1.886 0.781s0.781 1.178 0.781 1.886M4 9.333v13.333c0 0.707 0.281 1.385 0.781 1.886s1.178 0.781 1.886 0.781h18.667c0.707 0 1.385-0.281 1.886-0.781s0.781-1.178 0.781-1.886v-13.333M4 9.333l12 8 12-8"></path>
</symbol>

<symbol id="icon-nav-arrow" viewBox="0 0 32 32">
<path stroke-linejoin="round" stroke-linecap="round" stroke-miterlimit="4" stroke-width="2.6667" d="M24 12l-8 8-8-8"></path>
</symbol>

<symbol id="icon-check-mark-in-circle" viewBox="0 0 32 32">
<path stroke-linejoin="round" stroke-linecap="round" stroke-miterlimit="4" stroke-width="2" d="M11.413 4.92c-1.456 0.603-2.779 1.486-3.893 2.6M4.92 11.413c-0.605 1.454-0.917 3.012-0.92 4.587M4.92 20.587c0.603 1.456 1.486 2.779 2.6 3.893M11.413 27.080c1.454 0.605 3.012 0.917 4.587 0.92M20.587 27.080c1.456-0.603 2.779-1.486 3.893-2.6M27.080 20.587c0.605-1.454 0.917-3.012 0.92-4.587M27.080 11.413c-0.603-1.456-1.486-2.779-2.6-3.893M20.587 4.92c-1.454-0.605-3.012-0.917-4.587-0.92M12 16l2.667 2.667 5.333-5.333"></path>
</symbol>

<symbol id="icon-money" viewBox="0 0 32 32">
<path fill="#fff" style="fill: var(--color1, #fff)" d="M16 16.667c-1.238 0-2.425 0.492-3.3 1.367s-1.367 2.062-1.367 3.3 0.492 2.425 1.367 3.3c0.875 0.875 2.062 1.367 3.3 1.367s2.425-0.492 3.3-1.367c0.875-0.875 1.367-2.062 1.367-3.3s-0.492-2.425-1.367-3.3c-0.875-0.875-2.062-1.367-3.3-1.367zM14 21.333c0-0.53 0.211-1.039 0.586-1.414s0.884-0.586 1.414-0.586 1.039 0.211 1.414 0.586c0.375 0.375 0.586 0.884 0.586 1.414s-0.211 1.039-0.586 1.414c-0.375 0.375-0.884 0.586-1.414 0.586s-1.039-0.211-1.414-0.586c-0.375-0.375-0.586-0.884-0.586-1.414z"></path>
<path fill="#fff" style="fill: var(--color1, #fff)" d="M23.368 6.821l-4.239-5.943-15.585 12.451-0.864-0.009v0.013h-0.68v16h28v-16h-1.283l-2.552-7.465-2.797 0.953zM25.9 13.333h-13.371l9.959-3.395 2.029-0.649 1.383 4.044zM20.733 7.72l-10.28 3.504 8.141-6.504 2.139 3zM4.667 24.225v-5.787c0.563-0.199 1.074-0.521 1.496-0.943s0.745-0.933 0.944-1.496h17.787c0.199 0.563 0.521 1.074 0.943 1.497s0.934 0.745 1.497 0.943v5.787c-0.563 0.199-1.074 0.521-1.497 0.943s-0.745 0.934-0.943 1.497h-17.784c-0.2-0.563-0.523-1.074-0.945-1.497s-0.934-0.745-1.497-0.944z"></path>
</symbol>

<symbol id="icon-competitors" viewBox="0 0 32 32">
<path fill="#fff" style="fill: var(--color1, #fff)" d="M19.719 12.571c0.682 0 1.336 0.271 1.818 0.753s0.753 1.136 0.753 1.818v7.142c0 1.667-0.662 3.266-1.841 4.446s-2.778 1.841-4.446 1.841-3.266-0.662-4.445-1.841c-1.179-1.179-1.841-2.778-1.841-4.446v-7.142c0-0.682 0.271-1.336 0.753-1.818s1.136-0.753 1.818-0.753h7.431zM19.719 14.286h-7.431c-0.227 0-0.445 0.090-0.606 0.251s-0.251 0.379-0.251 0.606v7.142c0 1.213 0.482 2.376 1.339 3.233s2.021 1.339 3.233 1.339c1.213 0 2.376-0.482 3.233-1.339s1.339-2.021 1.339-3.233v-7.142c0-0.227-0.090-0.445-0.251-0.606s-0.379-0.251-0.606-0.251zM4.857 12.571h4.75c-0.459 0.478-0.781 1.070-0.934 1.714h-3.816c-0.227 0-0.445 0.090-0.606 0.251s-0.251 0.379-0.251 0.606v5.999c-0 0.574 0.143 1.138 0.417 1.642s0.67 0.931 1.152 1.242c0.482 0.311 1.034 0.496 1.606 0.538s1.145-0.060 1.668-0.296c0.152 0.56 0.37 1.093 0.645 1.591-0.783 0.342-1.639 0.484-2.49 0.412s-1.672-0.354-2.387-0.822c-0.715-0.468-1.302-1.107-1.708-1.859s-0.618-1.593-0.618-2.448v-5.999c0-0.682 0.271-1.336 0.753-1.818s1.136-0.753 1.818-0.753zM27.143 12.571c0.682 0 1.336 0.271 1.818 0.753s0.753 1.136 0.753 1.818v6c0 0.854-0.212 1.694-0.618 2.446s-0.992 1.39-1.706 1.858c-0.714 0.468-1.534 0.751-2.385 0.823s-1.706-0.069-2.489-0.41l0.064-0.117c0.245-0.464 0.442-0.957 0.584-1.473 0.522 0.235 1.095 0.335 1.666 0.292s1.122-0.229 1.603-0.54c0.481-0.311 0.876-0.737 1.15-1.24s0.417-1.066 0.417-1.639v-6c0-0.227-0.090-0.445-0.251-0.606s-0.378-0.251-0.605-0.252h-3.809c-0.153-0.645-0.475-1.237-0.935-1.714h4.743zM16 3.429c0.525 0 1.045 0.103 1.531 0.304s0.926 0.496 1.298 0.867 0.666 0.812 0.867 1.298c0.201 0.485 0.304 1.005 0.304 1.531s-0.103 1.045-0.304 1.531c-0.201 0.485-0.496 0.926-0.867 1.298s-0.812 0.666-1.298 0.867c-0.485 0.201-1.006 0.304-1.531 0.304-1.061 0-2.078-0.421-2.828-1.172s-1.172-1.768-1.172-2.828 0.421-2.078 1.172-2.828c0.75-0.75 1.768-1.172 2.828-1.172zM25.146 4.571c0.45 0 0.896 0.089 1.312 0.261s0.794 0.425 1.112 0.743c0.318 0.318 0.571 0.696 0.743 1.112s0.261 0.862 0.261 1.312c0 0.45-0.089 0.896-0.261 1.312s-0.425 0.794-0.743 1.112c-0.318 0.318-0.696 0.571-1.112 0.743s-0.862 0.261-1.312 0.261c-0.909 0-1.781-0.361-2.424-1.004s-1.004-1.515-1.004-2.424 0.361-1.781 1.004-2.424c0.643-0.643 1.515-1.004 2.424-1.004zM6.854 4.571c0.45 0 0.896 0.089 1.312 0.261s0.794 0.425 1.112 0.743c0.318 0.318 0.571 0.696 0.743 1.112s0.261 0.862 0.261 1.312-0.089 0.896-0.261 1.312c-0.172 0.416-0.425 0.794-0.743 1.112s-0.696 0.571-1.112 0.743c-0.416 0.172-0.862 0.261-1.312 0.261-0.909 0-1.781-0.361-2.424-1.004s-1.004-1.515-1.004-2.424 0.361-1.781 1.004-2.424c0.643-0.643 1.515-1.004 2.424-1.004zM16 5.143c-0.606 0-1.188 0.241-1.616 0.669s-0.669 1.010-0.669 1.616c0 0.606 0.241 1.188 0.669 1.616s1.010 0.669 1.616 0.669c0.606 0 1.188-0.241 1.616-0.669s0.67-1.010 0.67-1.616-0.241-1.188-0.67-1.616c-0.429-0.429-1.010-0.669-1.616-0.669zM25.146 6.286c-0.225 0-0.448 0.044-0.656 0.13s-0.397 0.212-0.556 0.372c-0.159 0.159-0.286 0.348-0.372 0.556s-0.131 0.431-0.131 0.656 0.044 0.448 0.131 0.656c0.086 0.208 0.212 0.397 0.372 0.556s0.348 0.285 0.556 0.372c0.208 0.086 0.431 0.13 0.656 0.13 0.455 0 0.891-0.181 1.212-0.502s0.502-0.758 0.502-1.212-0.181-0.891-0.502-1.212c-0.321-0.322-0.758-0.502-1.212-0.502zM6.854 6.286c-0.225 0-0.448 0.044-0.656 0.13s-0.397 0.212-0.556 0.372c-0.159 0.159-0.285 0.348-0.372 0.556s-0.13 0.431-0.13 0.656c0 0.225 0.044 0.448 0.13 0.656s0.212 0.397 0.372 0.556c0.159 0.159 0.348 0.285 0.556 0.372s0.431 0.13 0.656 0.13c0.455 0 0.891-0.181 1.212-0.502s0.502-0.758 0.502-1.212-0.181-0.891-0.502-1.212c-0.322-0.322-0.758-0.502-1.212-0.502z"></path>
</symbol>

<symbol id="icon-search" viewBox="0 0 32 32">
<path fill="none" stroke="#fff" style="stroke: var(--color1, #fff)" stroke-linejoin="round" stroke-linecap="round" stroke-miterlimit="4" stroke-width="1.6" d="M28 28l-8-8M4 13.333c0 1.226 0.241 2.439 0.71 3.572s1.157 2.161 2.023 3.028c0.867 0.867 1.896 1.554 3.028 2.023s2.346 0.71 3.572 0.71 2.439-0.241 3.572-0.71c1.132-0.469 2.161-1.157 3.028-2.023s1.554-1.896 2.023-3.028 0.71-2.346 0.71-3.572c0-1.226-0.241-2.439-0.71-3.572s-1.157-2.161-2.023-3.028c-0.867-0.867-1.896-1.554-3.028-2.023s-2.346-0.71-3.572-0.71c-1.226 0-2.439 0.241-3.572 0.71s-2.161 1.157-3.028 2.023-1.554 1.896-2.023 3.028c-0.469 1.132-0.71 2.346-0.71 3.572z"></path>
</symbol>

<symbol id="icon-rings" viewBox="0 0 32 32">
<path fill="#fff" style="fill: var(--color1, #fff)" d="M28.071 9.405c-1.736-1.736-4.135-2.809-6.787-2.809-1.534-0.001-2.979 0.359-4.265 0.994 0.776 0.583 1.431 1.214 2.001 1.913 0.378-0.064 0.763-0.096 1.157-0.096 1.871 0.002 3.564 0.759 4.794 1.989s1.991 2.927 1.993 4.798c0 3.745-3.046 6.791-6.787 6.787-3.741 0.004-6.791-3.046-6.787-6.787 0-1.784 0.691-3.416 1.82-4.625-0.535-0.39-1.141-0.691-1.792-0.876-1.093 1.559-1.732 3.452-1.732 5.501 0 5.304 4.292 9.604 9.6 9.6 5.304 0 9.596-4.292 9.598-9.598 0-2.652-1.077-5.055-2.813-6.791zM15.576 7.907c-1.431-0.812-3.389-1.348-4.852-1.316-3.813-0.004-7.105 2.218-8.656 5.433-0.61 1.326-0.946 2.839-0.944 4.167 0.002 5.306 4.298 9.602 9.602 9.602 1.535 0 2.982-0.362 4.268-0.997-0.751-0.551-1.427-1.193-2.009-1.913-0.37 0.064-0.755 0.096-1.149 0.096-4.115-0.924-7.169-3.906-6.787-7.141 0.218-1.871 1.075-3.651 2.22-4.675 1.775-1.568 4.29-2.132 6.279-1.638 0.647 0.173 2.118 0.904 3.082 1.869 1.294 1.415 1.989 2.881 1.993 4.798 0.008 1.784-0.695 3.412-1.828 4.625 0.539 0.394 1.145 0.695 1.796 0.88 1.294-2.049 1.861-4.023 1.72-6.052-0.108-1.611-0.51-3.034-1.326-4.348-0.86-1.423-2.094-2.616-3.408-3.392z"></path>
</symbol>

<symbol id="icon-person" viewBox="0 0 32 32">
<path fill="#fff" style="fill: var(--color1, #fff)" d="M18 30h-4c-0.53 0-1.039-0.211-1.414-0.586s-0.586-0.884-0.586-1.414v-7c-0.53 0-1.039-0.211-1.414-0.586s-0.586-0.884-0.586-1.414v-6c0-0.796 0.316-1.559 0.879-2.121s1.326-0.879 2.121-0.879h6c0.796 0 1.559 0.316 2.121 0.879s0.879 1.326 0.879 2.121v6c0 0.53-0.211 1.039-0.586 1.414s-0.884 0.586-1.414 0.586v7c0 0.53-0.211 1.039-0.586 1.414s-0.884 0.586-1.414 0.586zM13 12c-0.134-0.009-0.268 0.011-0.393 0.058s-0.239 0.12-0.334 0.215c-0.095 0.095-0.168 0.208-0.215 0.334s-0.067 0.259-0.058 0.393v6h2v9h4v-9h2v-6c0.009-0.134-0.011-0.268-0.058-0.393s-0.12-0.239-0.215-0.334c-0.095-0.095-0.208-0.168-0.334-0.215s-0.259-0.067-0.393-0.058h-6zM16 9c-0.791 0-1.564-0.235-2.222-0.674s-1.17-1.064-1.473-1.795-0.382-1.535-0.228-2.311c0.154-0.776 0.535-1.489 1.095-2.048s1.272-0.94 2.048-1.095c0.776-0.154 1.58-0.075 2.311 0.228s1.356 0.815 1.795 1.473c0.44 0.658 0.674 1.431 0.674 2.222 0 1.061-0.421 2.078-1.172 2.828s-1.768 1.172-2.828 1.172zM16 3c-0.396 0-0.782 0.117-1.111 0.337s-0.585 0.532-0.737 0.898c-0.151 0.365-0.191 0.768-0.114 1.156s0.268 0.744 0.547 1.024c0.28 0.28 0.636 0.47 1.024 0.547s0.79 0.038 1.156-0.114 0.678-0.408 0.898-0.737c0.22-0.329 0.337-0.716 0.337-1.111 0-0.53-0.211-1.039-0.586-1.414s-0.884-0.586-1.414-0.586z"></path>
</symbol>

<symbol id="icon-books" viewBox="0 0 32 32">
<path fill="#fff" style="fill: var(--color1, #fff)" d="M4 5.333v21.333c0 0.707 0.281 1.386 0.781 1.886s1.178 0.781 1.886 0.781h2.667c0.468-0 0.928-0.123 1.333-0.357 0.405 0.234 0.865 0.357 1.333 0.357h2.667c0.707 0 1.386-0.281 1.886-0.781s0.781-1.178 0.781-1.886v-15.116l4.229 15.788c0.091 0.338 0.247 0.655 0.46 0.933s0.479 0.511 0.782 0.686 0.638 0.289 0.986 0.334c0.347 0.046 0.7 0.022 1.038-0.068l2.576-0.689c0.338-0.091 0.655-0.247 0.933-0.46s0.511-0.479 0.686-0.782c0.175-0.303 0.289-0.638 0.334-0.985s0.022-0.7-0.068-1.038l-5.52-20.607c-0.091-0.338-0.247-0.655-0.46-0.933s-0.479-0.511-0.782-0.686-0.638-0.289-0.985-0.334c-0.347-0.046-0.7-0.022-1.038 0.068l-2.576 0.689c-0.368 0.099-0.696 0.269-0.976 0.493-0.467-0.775-1.316-1.292-2.285-1.292h-2.667c-0.468 0-0.928 0.123-1.333 0.357-0.392-0.228-0.848-0.357-1.333-0.357h-2.667c-0.707 0-1.386 0.281-1.886 0.781s-0.781 1.178-0.781 1.886zM6.667 5.333h2.667v21.333h-2.667v-21.333zM14.667 26.667h-2.667v-21.333h2.667v21.333zM18.619 6.041l2.575-0.689 5.523 20.607-2.576 0.689-5.521-20.607z"></path>
</symbol>

<symbol id="icon-important" viewBox="0 0 32 32">
<path fill="none" stroke="#b30000" style="stroke: var(--color1, #b30000)" stroke-linejoin="round" stroke-linecap="round" stroke-miterlimit="4" stroke-width="3.2" d="M15.999 16l10.667-6M15.999 16v12M15.999 16l-10.667-6M15.999 16l10.667 6M15.999 16v-12M15.999 16l-10.667 6"></path>
</symbol>

<symbol id="icon-error" viewBox="0 0 32 32">
<path  d="M24 2.144c2.432 1.404 4.452 3.424 5.856 5.856s2.144 5.191 2.144 8c0 2.809-0.739 5.568-2.144 8s-3.424 4.452-5.856 5.856c-2.432 1.404-5.192 2.144-8 2.144s-5.568-0.74-8-2.144-4.452-3.424-5.856-5.856c-1.404-2.432-2.143-5.192-2.143-8l0.008-0.518c0.090-2.763 0.894-5.456 2.334-7.816s3.467-4.306 5.884-5.65c2.416-1.343 5.14-2.038 7.904-2.015s5.476 0.761 7.87 2.143zM16 20.8c-0.424 0-0.831 0.169-1.131 0.469s-0.469 0.707-0.469 1.131v0.016c0 0.424 0.169 0.831 0.469 1.131s0.707 0.469 1.131 0.469c0.424 0 0.831-0.169 1.131-0.469s0.469-0.707 0.469-1.131v-0.016c0-0.424-0.169-0.831-0.469-1.131s-0.707-0.469-1.131-0.469zM16 9.6c-0.424 0-0.831 0.169-1.131 0.469s-0.469 0.707-0.469 1.131v6.4c0 0.424 0.169 0.831 0.469 1.131s0.707 0.469 1.131 0.469c0.424 0 0.831-0.169 1.131-0.469s0.469-0.707 0.469-1.131v-6.4c0-0.424-0.169-0.831-0.469-1.131s-0.707-0.469-1.131-0.469z"></path>
</symbol>

<symbol id="icon-success" viewBox="0 0 32 32">
<path d="M16 0c-8.836 0-16 7.164-16 16s7.164 16 16 16c8.836 0 16-7.164 16-16s-7.164-16-16-16zM14.333 22.024l-6-5.759 1.861-1.913 4.104 3.916 8.14-8.291 1.895 1.879-10 10.168z"></path>
</symbol>

<symbol id="icon-cross-in-circle" viewBox="0 0 32 32">
<path fill="none" stroke-linejoin="round" stroke-linecap="round" stroke-miterlimit="4" stroke-width="3.2" d="M10.496 2.704c-1.747 0.723-3.335 1.783-4.672 3.12M2.704 10.496c-0.726 1.744-1.101 3.615-1.104 5.504M2.704 21.504c0.723 1.747 1.783 3.335 3.12 4.672M10.496 29.296c1.744 0.725 3.615 1.101 5.504 1.104M21.504 29.296c1.747-0.723 3.335-1.783 4.672-3.12M29.296 21.504c0.725-1.744 1.101-3.615 1.104-5.504M29.296 10.496c-0.723-1.747-1.783-3.335-3.12-4.672M21.504 2.704c-1.744-0.726-3.615-1.101-5.504-1.104M10.57 10.871l5.431 5.431M16 16.301l5.431 5.431M16 16.301l-5.431 5.431M16 16.301l5.431-5.431"></path>
</symbol>

</defs>
</svg>
