<svg aria-hidden="true" style="position: absolute; width: 0; height: 0; overflow: hidden;" version="1.1" xmlns="http://www.w3.org/2000/svg" xmlns:xlink="http://www.w3.org/1999/xlink">
<defs>
<symbol id="icon-burger" viewBox="0 0 32 32">
<path d="M29.333 22.333c0-0.552-0.448-1-1-1h-24.667c-0.552 0-1 0.448-1 1s0.448 1 1 1h24.667c0.552 0 1-0.448 1-1zM29.333 15.667c0-0.552-0.448-1-1-1h-24.667c-0.552 0-1 0.448-1 1s0.448 1 1 1h24.667c0.552 0 1-0.448 1-1zM29.333 9c0-0.552-0.448-1-1-1h-24.667c-0.552 0-1 0.448-1 1s0.448 1 1 1h24.667c0.552 0 1-0.448 1-1z"></path>
</symbol>
<symbol id="icon-close" viewBox="0 0 32 32">
<path stroke-linejoin="round" stroke-linecap="round" stroke-miterlimit="4" stroke-width="2" d="M8.458 8.457l15.085 15.085M8.458 23.543l15.085-15.085"></path>
</symbol>
<symbol id="icon-call" viewBox="0 0 32 32">
<path stroke-linejoin="round" stroke-linecap="round" stroke-miterlimit="4" stroke-width="2.6667" d="M20 9.333c0.707 0 1.385 0.281 1.886 0.781s0.781 1.178 0.781 1.886M20 4c2.122 0 4.157 0.843 5.657 2.343s2.343 3.535 2.343 5.657M6.667 5.333h5.333l2.667 6.667-3.333 2c1.428 2.895 3.771 5.239 6.667 6.667l2-3.333 6.667 2.667v5.333c0 0.707-0.281 1.385-0.781 1.886s-1.178 0.781-1.886 0.781c-5.201-0.316-10.106-2.525-13.791-6.209s-5.893-8.59-6.209-13.791c0-0.707 0.281-1.386 0.781-1.886s1.178-0.781 1.886-0.781z"></path>
</symbol>
<symbol id="icon-map_pin" viewBox="0 0 32 32">
<path stroke-linejoin="miter" stroke-linecap="butt" stroke-miterlimit="4" stroke-width="2.6667" d="M23.543 7.124l0 0c1.958 1.958 3.078 4.601 3.123 7.37 0.045 2.766-0.986 5.44-2.876 7.46l-0.255 0.264-5.649 5.648c-0 0-0 0-0 0-0.479 0.478-1.121 0.757-1.797 0.779-0.669 0.022-1.322-0.209-1.829-0.646l-0.158-0.148-5.643-5.642c-0 0-0 0-0 0-2-2-3.124-4.713-3.124-7.542s1.124-5.542 3.124-7.543 4.714-3.124 7.543-3.124c2.829 0 5.542 1.124 7.542 3.124zM16 9.333c-0.7 0-1.394 0.138-2.041 0.406s-1.235 0.661-1.73 1.156c-0.495 0.495-0.888 1.083-1.156 1.73s-0.406 1.341-0.406 2.041c0 0.7 0.138 1.394 0.406 2.041s0.661 1.235 1.156 1.73c0.495 0.495 1.083 0.888 1.73 1.156s1.341 0.406 2.041 0.406c1.414 0 2.771-0.562 3.771-1.562s1.562-2.357 1.562-3.771c0-1.415-0.562-2.771-1.562-3.771s-2.357-1.562-3.771-1.562z"></path>
</symbol>
<symbol id="icon-telegram" viewBox="0 0 32 32">
<path stroke-linejoin="round" stroke-linecap="round" stroke-miterlimit="4" stroke-width="2.6667" d="M20 13.333l-5.333 5.333 8 8 5.333-21.333-24 9.333 5.333 2.667 2.667 8 4-5.333"></path>
</symbol>
<symbol id="icon-viber" viewBox="0 0 32 32">
<path d="M16.941 17.84c0 0 0.45 0.040 0.692-0.26l0.472-0.594c0.228-0.295 0.778-0.483 1.317-0.183 0.713 0.403 1.634 1.036 2.266 1.625 0.348 0.293 0.429 0.725 0.192 1.182l-0.002 0.009c-0.245 0.43-0.571 0.834-0.983 1.211l-0.009 0.006c-0.464 0.387-0.998 0.612-1.568 0.426l-0.011-0.015c-1.025-0.29-3.484-1.544-5.051-2.793-2.563-2.022-4.386-5.359-4.89-7.147l-0.016-0.011c-0.186-0.573 0.041-1.106 0.426-1.569l0.007-0.008c0.376-0.412 0.779-0.739 1.211-0.983l0.009-0.002c0.456-0.237 0.888-0.157 1.182 0.192 0.387 0.4 1.114 1.361 1.624 2.266 0.299 0.538 0.112 1.089-0.182 1.316l-0.595 0.472c-0.299 0.243-0.26 0.693-0.26 0.693s0.879 3.328 4.168 4.167zM22.115 15.081c-0.176 0-0.319-0.142-0.321-0.319-0.015-1.93-0.595-3.467-1.723-4.568-1.13-1.102-2.559-1.667-4.246-1.679-0.177-0.001-0.32-0.146-0.317-0.323 0.001-0.176 0.143-0.317 0.319-0.317h0.002c1.858 0.013 3.435 0.639 4.689 1.86 1.255 1.225 1.9 2.916 1.916 5.022 0.001 0.176-0.14 0.321-0.317 0.323h-0.002zM20.433 14.423h-0.007c-0.177-0.004-0.317-0.151-0.313-0.327 0.025-1.095-0.288-1.98-0.955-2.709-0.664-0.727-1.577-1.123-2.789-1.212-0.176-0.014-0.309-0.167-0.296-0.343 0.014-0.176 0.167-0.309 0.343-0.296 1.364 0.1 2.446 0.578 3.215 1.418 0.773 0.844 1.151 1.905 1.123 3.155-0.004 0.174-0.147 0.313-0.32 0.313zM18.79 13.873c-0.17 0-0.311-0.133-0.32-0.305-0.054-1.086-0.566-1.618-1.61-1.675-0.177-0.009-0.312-0.16-0.303-0.336 0.009-0.177 0.159-0.312 0.336-0.303 1.379 0.074 2.145 0.864 2.215 2.282 0.009 0.176-0.127 0.327-0.304 0.335l-0.016 0.001zM25.979 17.531c-0.638 5.143-4.399 5.467-5.093 5.69-0.295 0.095-3.039 0.777-6.487 0.553 0 0-2.571 3.1-3.373 3.907-0.126 0.126-0.272 0.176-0.371 0.153-0.138-0.034-0.176-0.198-0.174-0.437l0.021-4.235c-5.021-1.395-4.729-6.639-4.672-9.384s0.573-4.994 2.105-6.506c2.752-2.493 8.422-2.121 8.422-2.121 4.788 0.021 7.083 1.463 7.615 1.946 1.766 1.512 2.666 5.132 2.008 10.434zM25.291 5.812c-0.629-0.578-3.171-2.423-8.831-2.449 0 0-6.675-0.403-9.929 2.583-1.812 1.812-2.449 4.461-2.516 7.748-0.066 3.288-0.154 9.446 5.783 11.116l0.006 0.002-0.004 2.548c0 0-0.037 1.032 0.642 1.243 0.821 0.254 1.303-0.529 2.089-1.375 0.43-0.464 1.024-1.145 1.473-1.666 4.061 0.339 7.183-0.44 7.539-0.555 0.819-0.267 5.459-0.86 6.214-7.020 0.778-6.35-0.377-10.365-2.465-12.177z"></path>
</symbol>
<symbol id="icon-whatsapp" viewBox="0 0 32 32">
<path d="M4 28.057l1.695-6.192c-1.046-1.813-1.596-3.867-1.595-5.974 0.003-6.587 5.363-11.948 11.95-11.948 3.196 0.001 6.196 1.246 8.453 3.505s3.498 5.261 3.497 8.454c-0.003 6.588-5.363 11.949-11.95 11.949-1.999-0.001-3.97-0.502-5.715-1.455l-6.335 1.662zM10.628 24.232c1.684 1 3.292 1.599 5.418 1.6 5.474 0 9.933-4.455 9.936-9.932 0.002-5.488-4.436-9.937-9.928-9.939-5.478 0-9.934 4.455-9.936 9.931-0.001 2.236 0.654 3.91 1.754 5.661l-1.004 3.665 3.76-0.986zM22.070 18.742c-0.074-0.125-0.273-0.199-0.573-0.349-0.298-0.15-1.766-0.872-2.041-0.972s-0.472-0.15-0.672 0.15c-0.199 0.298-0.772 0.972-0.946 1.171s-0.349 0.224-0.647 0.074c-0.298-0.15-1.261-0.464-2.401-1.482-0.887-0.792-1.487-1.769-1.661-2.069-0.174-0.298-0.018-0.46 0.131-0.609 0.135-0.134 0.298-0.349 0.448-0.523 0.152-0.173 0.201-0.297 0.301-0.497 0.099-0.199 0.050-0.374-0.025-0.523s-0.672-1.619-0.92-2.217c-0.243-0.582-0.489-0.503-0.672-0.512l-0.573-0.010c-0.199 0-0.523 0.074-0.796 0.374s-1.045 1.021-1.045 2.491c0 1.47 1.070 2.89 1.219 3.089 0.15 0.199 2.105 3.215 5.1 4.508 0.712 0.307 1.269 0.491 1.702 0.629 0.715 0.227 1.367 0.195 1.881 0.119 0.574-0.085 1.766-0.723 2.016-1.42 0.249-0.698 0.249-1.296 0.174-1.421z"></path>
</symbol>
<symbol id="icon-instagram" viewBox="0 0 32 32">
<path stroke-linejoin="round" stroke-linecap="round" stroke-miterlimit="4" stroke-width="2.6667" d="M22 10v0.013M5.333 10.667c0-1.415 0.562-2.771 1.562-3.771s2.357-1.562 3.771-1.562h10.667c1.415 0 2.771 0.562 3.771 1.562s1.562 2.357 1.562 3.771v10.667c0 1.415-0.562 2.771-1.562 3.771s-2.357 1.562-3.771 1.562h-10.667c-1.415 0-2.771-0.562-3.771-1.562s-1.562-2.357-1.562-3.771v-10.667zM12 16c0 1.061 0.421 2.078 1.172 2.828s1.768 1.172 2.828 1.172c1.061 0 2.078-0.421 2.828-1.172s1.172-1.768 1.172-2.828c0-1.061-0.421-2.078-1.172-2.828s-1.768-1.172-2.828-1.172c-1.061 0-2.078 0.421-2.828 1.172s-1.172 1.768-1.172 2.828z"></path>
</symbol>
<symbol id="icon-email" viewBox="0 0 32 32">
<path stroke-linejoin="round" stroke-linecap="round" stroke-miterlimit="4" stroke-width="2.6667" d="M4 9.333c0-0.707 0.281-1.386 0.781-1.886s1.178-0.781 1.886-0.781h18.667c0.707 0 1.385 0.281 1.886 0.781s0.781 1.178 0.781 1.886M4 9.333v13.333c0 0.707 0.281 1.385 0.781 1.886s1.178 0.781 1.886 0.781h18.667c0.707 0 1.385-0.281 1.886-0.781s0.781-1.178 0.781-1.886v-13.333M4 9.333l12 8 12-8"></path>
</symbol>
<symbol id="icon-nav-arrow" viewBox="0 0 32 32">
<path stroke-linejoin="round" stroke-linecap="round" stroke-miterlimit="4" stroke-width="2.6667" d="M24 12l-8 8-8-8"></path>
</symbol>
</defs>
</svg>
