<svg width="24" height="24" viewBox="0 0 24 24" fill="none" xmlns="http://www.w3.org/2000/svg">
<path d="M17.6569 5.34316L17.657 5.3432C19.1257 6.81177 19.9657 8.79397 19.9994 10.8707C20.0331 12.9449 19.2596 14.951 17.8426 16.4657L17.651 16.6639L13.4142 20.8997C13.4141 20.8998 13.4141 20.8998 13.414 20.8999C13.0551 21.2585 12.5734 21.4673 12.0663 21.484C11.5642 21.5005 11.0745 21.3275 10.6944 20.9997L10.5757 20.8885L6.34316 16.6569C6.34313 16.6569 6.34311 16.6569 6.34308 16.6569C4.84283 15.1566 4 13.1218 4 11.0001C4 8.87831 4.84286 6.84346 6.34316 5.34316C7.84346 3.84286 9.87831 3 12.0001 3C14.1218 3 16.1566 3.84286 17.6569 5.34316ZM12.0001 7.00006C11.4748 7.00006 10.9546 7.10352 10.4693 7.30454C9.98402 7.50556 9.54306 7.80019 9.17163 8.17163C8.80019 8.54306 8.50556 8.98402 8.30454 9.46932C8.10352 9.95462 8.00006 10.4748 8.00006 11.0001C8.00006 11.5253 8.10352 12.0455 8.30454 12.5308C8.50556 13.0161 8.80019 13.457 9.17163 13.8285C9.54306 14.1999 9.98402 14.4946 10.4693 14.6956C10.9546 14.8966 11.4748 15.0001 12.0001 15.0001C13.0609 15.0001 14.0783 14.5786 14.8285 13.8285C15.5786 13.0783 16.0001 12.0609 16.0001 11.0001C16.0001 9.93919 15.5786 8.92177 14.8285 8.17163C14.0783 7.42148 13.0609 7.00006 12.0001 7.00006Z" stroke="white" stroke-width="2"/>
</svg>
