<svg width="32" height="32" viewBox="0 0 32 32" fill="none" xmlns="http://www.w3.org/2000/svg">
<path d="M29.3332 22.3333C29.3332 21.7813 28.8852 21.3333 28.3332 21.3333H3.6665C3.1145 21.3333 2.6665 21.7813 2.6665 22.3333C2.6665 22.8853 3.1145 23.3333 3.6665 23.3333H28.3332C28.8852 23.3333 29.3332 22.8853 29.3332 22.3333ZM29.3332 15.6667C29.3332 15.1147 28.8852 14.6667 28.3332 14.6667H3.6665C3.1145 14.6667 2.6665 15.1147 2.6665 15.6667C2.6665 16.2187 3.1145 16.6667 3.6665 16.6667H28.3332C28.8852 16.6667 29.3332 16.2187 29.3332 15.6667ZM29.3332 9C29.3332 8.448 28.8852 8 28.3332 8H3.6665C3.1145 8 2.6665 8.448 2.6665 9C2.6665 9.552 3.1145 10 3.6665 10H28.3332C28.8852 10 29.3332 9.552 29.3332 9Z" fill="#0B151F"/>
</svg>
