<svg width="24" height="24" viewBox="0 0 24 24" fill="none" xmlns="http://www.w3.org/2000/svg">
<path fill-rule="evenodd" clip-rule="evenodd" d="M12.7056 13.3798C12.7056 13.3798 13.0433 13.4099 13.2244 13.1845L13.5787 12.7392C13.7495 12.5178 14.1624 12.377 14.5665 12.6016C15.1011 12.9037 15.7923 13.3783 16.266 13.8204C16.527 14.0402 16.5879 14.3645 16.41 14.7069L16.4084 14.714C16.2249 15.0367 15.9805 15.3396 15.6713 15.6219L15.6642 15.6267C15.3162 15.9169 14.916 16.0854 14.4882 15.9462L14.4803 15.9351C13.7116 15.7176 11.8673 14.7773 10.6921 13.8401C8.76948 12.3233 7.40287 9.82097 7.02484 8.47967L7.01298 8.47176C6.87379 8.04233 7.04382 7.64215 7.33249 7.29496L7.33802 7.28864C7.62036 6.97941 7.92247 6.73424 8.24593 6.55156L8.25305 6.54997C8.5947 6.37203 8.91895 6.43214 9.1396 6.69391C9.42985 6.99365 9.97475 7.71491 10.3575 8.39347C10.5821 8.79681 10.4414 9.21043 10.2207 9.38046L9.77466 9.73477C9.55006 9.91666 9.57932 10.2544 9.57932 10.2544C9.57932 10.2544 10.2389 12.7503 12.7056 13.3798ZM16.5863 11.311C16.4543 11.311 16.3467 11.2042 16.3459 11.0721C16.3348 9.62484 15.8999 8.47176 15.0537 7.64611C14.2059 6.81966 13.1342 6.39576 11.8689 6.38706C11.736 6.38627 11.6292 6.27792 11.6308 6.14505C11.6316 6.01298 11.7384 5.907 11.8704 5.907H11.872C13.2655 5.91649 14.4486 6.38627 15.389 7.30208C16.3301 8.22106 16.8141 9.48881 16.826 11.0689C16.8268 11.201 16.7208 11.3094 16.5879 11.311H16.5863ZM15.3249 10.8175H15.3194C15.1865 10.8143 15.0813 10.7044 15.0845 10.5723C15.1035 9.75138 14.8686 9.08705 14.368 8.54057C13.8697 7.99567 13.1856 7.6983 12.2762 7.63187C12.1441 7.62159 12.0444 7.50691 12.0539 7.37484C12.0642 7.24277 12.1789 7.14312 12.311 7.15261C13.3343 7.22774 14.1457 7.586 14.7223 8.21632C15.302 8.849 15.5859 9.6454 15.5646 10.5826C15.5614 10.7131 15.4546 10.8175 15.3249 10.8175ZM14.0928 10.4046C13.9654 10.4046 13.8595 10.305 13.8531 10.1761C13.8128 9.36148 13.4284 8.96289 12.6455 8.92018C12.5126 8.91306 12.4114 8.79997 12.4185 8.6679C12.4256 8.53503 12.5379 8.4338 12.6708 8.44092C13.7052 8.49628 14.2794 9.08863 14.3324 10.1523C14.3395 10.2844 14.2375 10.3975 14.1046 10.4038L14.0928 10.4046ZM19.4841 13.1481C19.0056 17.0051 16.1846 17.2487 15.6642 17.4156C15.4428 17.4868 13.3849 17.9985 10.7988 17.83C10.7988 17.83 8.87071 20.1551 8.26887 20.7601C8.17475 20.8543 8.06482 20.8922 7.99048 20.8748C7.88688 20.8495 7.85841 20.7261 7.85999 20.5474L7.87581 17.3713C4.10973 16.325 4.3288 12.3921 4.37151 10.3334C4.41422 8.27484 4.80095 6.58793 5.95007 5.45384C8.01421 3.58425 12.2667 3.86342 12.2667 3.86342C15.858 3.87924 17.5789 4.96034 17.9783 5.32256C19.3029 6.45665 19.9775 9.17167 19.4841 13.1481ZM18.9684 4.35929C18.4963 3.9259 16.5903 2.54189 12.345 2.52291C12.345 2.52291 7.33882 2.22081 4.89822 4.46052C3.53952 5.81922 3.06184 7.80665 3.01123 10.2718C2.96141 12.7377 2.89576 17.3563 7.34831 18.609L7.35305 18.6106L7.34989 20.5213C7.34989 20.5213 7.32221 21.2956 7.83152 21.4537C8.4476 21.6443 8.80902 21.0567 9.39821 20.4224C9.72089 20.0745 10.1661 19.5636 10.503 19.1729C13.5486 19.4275 15.8904 18.8431 16.1569 18.7569C16.7714 18.5568 20.2512 18.1116 20.8174 13.4921C21.4011 8.72958 20.5343 5.71799 18.9684 4.35929Z" fill="white"/>
</svg>
