<svg width="24" height="24" viewBox="0 0 24 24" fill="none" xmlns="http://www.w3.org/2000/svg">
<path d="M3 21.0429L4.27129 16.3986C3.48681 15.0392 3.0746 13.4981 3.07536 11.9178C3.07762 6.97738 7.09797 2.95703 12.0377 2.95703C14.4348 2.95778 16.685 3.89147 18.3775 5.58552C20.0693 7.27956 21.0008 9.53126 21 11.9261C20.9977 16.8674 16.9774 20.8877 12.0377 20.8877C10.5381 20.8869 9.06029 20.5109 7.75132 19.7965L3 21.0429ZM7.97136 18.1741C9.23436 18.9239 10.4401 19.373 12.0347 19.3738C16.1402 19.3738 19.4846 16.0324 19.4868 11.9246C19.4883 7.80858 16.1598 4.47173 12.0407 4.47022C7.93218 4.47022 4.59005 7.81159 4.58855 11.9186C4.58779 13.5953 5.07913 14.8508 5.9043 16.1643L5.15147 18.9133L7.97136 18.1741ZM16.5524 14.0565C16.4966 13.9631 16.3474 13.9073 16.1228 13.795C15.899 13.6827 14.798 13.1409 14.5923 13.0663C14.3873 12.9917 14.2381 12.954 14.0882 13.1786C13.939 13.4024 13.5094 13.9073 13.379 14.0565C13.2487 14.2057 13.1176 14.2246 12.8937 14.1123C12.6699 14 11.948 13.7641 11.0927 13.0007C10.4273 12.4069 9.97739 11.6737 9.84702 11.4491C9.71665 11.2253 9.83346 11.104 9.94499 10.9924C10.046 10.8922 10.1688 10.731 10.2811 10.5998C10.3949 10.4702 10.4318 10.3768 10.5072 10.2268C10.5818 10.0776 10.5448 9.94648 10.4883 9.8342C10.4318 9.72267 9.98417 8.62018 9.79804 8.1718C9.61567 7.73548 9.43105 7.79426 9.2939 7.78748L8.86436 7.77994C8.71515 7.77994 8.47249 7.8357 8.26752 8.06027C8.06255 8.28484 7.4838 8.82591 7.4838 9.92839C7.4838 11.0309 8.28636 12.0957 8.39789 12.2449C8.51017 12.3941 9.97664 14.6564 12.2231 15.6262C12.7573 15.8568 13.1748 15.9947 13.4996 16.0979C14.0362 16.2683 14.5245 16.2441 14.9103 16.1869C15.3406 16.1228 16.2351 15.645 16.422 15.1221C16.6089 14.5983 16.6089 14.1499 16.5524 14.0565Z" fill="white"/>
</svg>
